<?xml version='1.0' encoding='utf-8'?>
<svg xmlns:xlink="http://www.w3.org/1999/xlink" class="pygal-chart" id="chart-8e7c3dc1-bb8c-4300-bfda-962c40151239" viewBox="0 0 800 600" xmlns="http://www.w3.org/2000/svg"><!--Generated with pygal 1.7.0 (etree) ©Kozea 2011-2014 on 2015-04-29--><!--http://pygal.org--><!--http://github.com/Kozea/pygal--><defs><style type="text/css">#chart-8e7c3dc1-bb8c-4300-bfda-962c40151239 .title{font-family:"monospace";font-size:16px}#chart-8e7c3dc1-bb8c-4300-bfda-962c40151239 .legends .legend text{font-family:"monospace";font-size:14px}#chart-8e7c3dc1-bb8c-4300-bfda-962c40151239 .axis text{font-family:"monospace";font-size:10px}#chart-8e7c3dc1-bb8c-4300-bfda-962c40151239 .axis text.major{font-family:"monospace";font-size:10px}#chart-8e7c3dc1-bb8c-4300-bfda-962c40151239 .series text{font-family:"monospace";font-size:8px}#chart-8e7c3dc1-bb8c-4300-bfda-962c40151239 .tooltip text{font-family:"monospace";font-size:16px}#chart-8e7c3dc1-bb8c-4300-bfda-962c40151239 text.no_data{font-size:64px}
#chart-8e7c3dc1-bb8c-4300-bfda-962c40151239{background-color:#F0E1CC}#chart-8e7c3dc1-bb8c-4300-bfda-962c40151239 path,#chart-8e7c3dc1-bb8c-4300-bfda-962c40151239 line,#chart-8e7c3dc1-bb8c-4300-bfda-962c40151239 rect,#chart-8e7c3dc1-bb8c-4300-bfda-962c40151239 circle{-webkit-transition:200ms ease-in;-moz-transition:200ms ease-in;transition:200ms ease-in}#chart-8e7c3dc1-bb8c-4300-bfda-962c40151239 .graph &gt; .background{fill:#F0E1CC}#chart-8e7c3dc1-bb8c-4300-bfda-962c40151239 .plot &gt; .background{fill:transparent}#chart-8e7c3dc1-bb8c-4300-bfda-962c40151239 .graph{fill:#273417}#chart-8e7c3dc1-bb8c-4300-bfda-962c40151239 text.no_data{fill:#000000}#chart-8e7c3dc1-bb8c-4300-bfda-962c40151239 .title{fill:#000000}#chart-8e7c3dc1-bb8c-4300-bfda-962c40151239 .legends .legend text{fill:#273417}#chart-8e7c3dc1-bb8c-4300-bfda-962c40151239 .legends .legend:hover text{fill:#000000}#chart-8e7c3dc1-bb8c-4300-bfda-962c40151239 .axis .line{stroke:#000000}#chart-8e7c3dc1-bb8c-4300-bfda-962c40151239 .axis .guide.line{stroke:#oooooo}#chart-8e7c3dc1-bb8c-4300-bfda-962c40151239 .axis .major.line{stroke:#273417}#chart-8e7c3dc1-bb8c-4300-bfda-962c40151239 .axis text.major{stroke:#000000;fill:#000000}#chart-8e7c3dc1-bb8c-4300-bfda-962c40151239 .axis.y .guides:hover .guide.line,#chart-8e7c3dc1-bb8c-4300-bfda-962c40151239 .line-graph .axis.x .guides:hover .guide.line,#chart-8e7c3dc1-bb8c-4300-bfda-962c40151239 .stackedline-graph .axis.x .guides:hover .guide.line,#chart-8e7c3dc1-bb8c-4300-bfda-962c40151239 .xy-graph .axis.x .guides:hover .guide.line{stroke:#000000}#chart-8e7c3dc1-bb8c-4300-bfda-962c40151239 .axis .guides:hover text{fill:#000000}#chart-8e7c3dc1-bb8c-4300-bfda-962c40151239 .reactive{fill-opacity:.7}#chart-8e7c3dc1-bb8c-4300-bfda-962c40151239 .reactive.active,#chart-8e7c3dc1-bb8c-4300-bfda-962c40151239 .active .reactive{fill-opacity:.9}#chart-8e7c3dc1-bb8c-4300-bfda-962c40151239 .series{stroke-width:1.0;stroke-linejoin:round;stroke-linecap:round;stroke-dasharray:0,0}#chart-8e7c3dc1-bb8c-4300-bfda-962c40151239 .series text{fill:#000000}#chart-8e7c3dc1-bb8c-4300-bfda-962c40151239 .tooltip rect{fill:transparent;stroke:#000000}#chart-8e7c3dc1-bb8c-4300-bfda-962c40151239 .tooltip text{fill:#000000}#chart-8e7c3dc1-bb8c-4300-bfda-962c40151239 .map-element{fill:#273417;stroke:#oooooo !important;opacity:.9;stroke-width:3;-webkit-transition:250ms;-moz-transition:250ms;-o-transition:250ms;transition:250ms}#chart-8e7c3dc1-bb8c-4300-bfda-962c40151239 .map-element:hover{opacity:1;stroke-width:10}#chart-8e7c3dc1-bb8c-4300-bfda-962c40151239 .color-0,#chart-8e7c3dc1-bb8c-4300-bfda-962c40151239 .color-0 a:visited{stroke:#ffffff;fill:#ffffff}#chart-8e7c3dc1-bb8c-4300-bfda-962c40151239 .color-1,#chart-8e7c3dc1-bb8c-4300-bfda-962c40151239 .color-1 a:visited{stroke:#000000;fill:#000000}#chart-8e7c3dc1-bb8c-4300-bfda-962c40151239 .color-2,#chart-8e7c3dc1-bb8c-4300-bfda-962c40151239 .color-2 a:visited{stroke:#4B92D7;fill:#4B92D7}#chart-8e7c3dc1-bb8c-4300-bfda-962c40151239 .color-3,#chart-8e7c3dc1-bb8c-4300-bfda-962c40151239 .color-3 a:visited{stroke:#ffffff;fill:#ffffff}#chart-8e7c3dc1-bb8c-4300-bfda-962c40151239 .color-4,#chart-8e7c3dc1-bb8c-4300-bfda-962c40151239 .color-4 a:visited{stroke:#000000;fill:#000000}#chart-8e7c3dc1-bb8c-4300-bfda-962c40151239 .color-5,#chart-8e7c3dc1-bb8c-4300-bfda-962c40151239 .color-5 a:visited{stroke:#4B92D7;fill:#4B92D7}#chart-8e7c3dc1-bb8c-4300-bfda-962c40151239 .color-6,#chart-8e7c3dc1-bb8c-4300-bfda-962c40151239 .color-6 a:visited{stroke:#ffffff;fill:#ffffff}#chart-8e7c3dc1-bb8c-4300-bfda-962c40151239 .color-7,#chart-8e7c3dc1-bb8c-4300-bfda-962c40151239 .color-7 a:visited{stroke:#000000;fill:#000000}#chart-8e7c3dc1-bb8c-4300-bfda-962c40151239 .color-8,#chart-8e7c3dc1-bb8c-4300-bfda-962c40151239 .color-8 a:visited{stroke:#4B92D7;fill:#4B92D7}#chart-8e7c3dc1-bb8c-4300-bfda-962c40151239 .color-9,#chart-8e7c3dc1-bb8c-4300-bfda-962c40151239 .color-9 a:visited{stroke:#ffffff;fill:#ffffff}#chart-8e7c3dc1-bb8c-4300-bfda-962c40151239 .color-10,#chart-8e7c3dc1-bb8c-4300-bfda-962c40151239 .color-10 a:visited{stroke:#000000;fill:#000000}#chart-8e7c3dc1-bb8c-4300-bfda-962c40151239 .color-11,#chart-8e7c3dc1-bb8c-4300-bfda-962c40151239 .color-11 a:visited{stroke:#4B92D7;fill:#4B92D7}#chart-8e7c3dc1-bb8c-4300-bfda-962c40151239 .color-12,#chart-8e7c3dc1-bb8c-4300-bfda-962c40151239 .color-12 a:visited{stroke:#ffffff;fill:#ffffff}#chart-8e7c3dc1-bb8c-4300-bfda-962c40151239 .color-13,#chart-8e7c3dc1-bb8c-4300-bfda-962c40151239 .color-13 a:visited{stroke:#000000;fill:#000000}#chart-8e7c3dc1-bb8c-4300-bfda-962c40151239 .color-14,#chart-8e7c3dc1-bb8c-4300-bfda-962c40151239 .color-14 a:visited{stroke:#4B92D7;fill:#4B92D7}#chart-8e7c3dc1-bb8c-4300-bfda-962c40151239 .color-15,#chart-8e7c3dc1-bb8c-4300-bfda-962c40151239 .color-15 a:visited{stroke:#ffffff;fill:#ffffff}
#chart-8e7c3dc1-bb8c-4300-bfda-962c40151239 text.no_data{text-anchor:middle}#chart-8e7c3dc1-bb8c-4300-bfda-962c40151239 .guide.line{fill-opacity:0}#chart-8e7c3dc1-bb8c-4300-bfda-962c40151239 .centered{text-anchor:middle}#chart-8e7c3dc1-bb8c-4300-bfda-962c40151239 .title{text-anchor:middle}#chart-8e7c3dc1-bb8c-4300-bfda-962c40151239 .legends .legend text{fill-opacity:1}#chart-8e7c3dc1-bb8c-4300-bfda-962c40151239 .axis.x text{text-anchor:middle}#chart-8e7c3dc1-bb8c-4300-bfda-962c40151239 .axis.x:not(.web) text[transform]{text-anchor:start}#chart-8e7c3dc1-bb8c-4300-bfda-962c40151239 .axis.y text{text-anchor:end}#chart-8e7c3dc1-bb8c-4300-bfda-962c40151239 .axis.y2 text{text-anchor:start}#chart-8e7c3dc1-bb8c-4300-bfda-962c40151239 .axis.y .logarithmic text:not(.major),#chart-8e7c3dc1-bb8c-4300-bfda-962c40151239 .axis.y2 .logarithmic text:not(.major){font-size:50%}#chart-8e7c3dc1-bb8c-4300-bfda-962c40151239 .axis .guide.line{stroke-dasharray:4,4}#chart-8e7c3dc1-bb8c-4300-bfda-962c40151239 .axis .major.guide.line{stroke-dasharray:6,6}#chart-8e7c3dc1-bb8c-4300-bfda-962c40151239 .axis text.major{stroke-width:0.5px}#chart-8e7c3dc1-bb8c-4300-bfda-962c40151239 .horizontal .axis.y .guide.line,#chart-8e7c3dc1-bb8c-4300-bfda-962c40151239 .horizontal .axis.y2 .guide.line,#chart-8e7c3dc1-bb8c-4300-bfda-962c40151239 .vertical .axis.x .guide.line{opacity:0}#chart-8e7c3dc1-bb8c-4300-bfda-962c40151239 .horizontal .axis.always_show .guide.line,#chart-8e7c3dc1-bb8c-4300-bfda-962c40151239 .vertical .axis.always_show .guide.line{opacity:1 !important}#chart-8e7c3dc1-bb8c-4300-bfda-962c40151239 .axis.y .guides:hover .guide.line,#chart-8e7c3dc1-bb8c-4300-bfda-962c40151239 .axis.y2 .guides:hover .guide.line,#chart-8e7c3dc1-bb8c-4300-bfda-962c40151239 .axis.x .guides:hover .guide.line{opacity:1}#chart-8e7c3dc1-bb8c-4300-bfda-962c40151239 .axis .guides:hover text{opacity:1}#chart-8e7c3dc1-bb8c-4300-bfda-962c40151239 .nofill{fill:none}#chart-8e7c3dc1-bb8c-4300-bfda-962c40151239 .subtle-fill{fill-opacity:.2}#chart-8e7c3dc1-bb8c-4300-bfda-962c40151239 .dot{stroke-width:1px;fill-opacity:1}#chart-8e7c3dc1-bb8c-4300-bfda-962c40151239 .dot.active{stroke-width:5px}#chart-8e7c3dc1-bb8c-4300-bfda-962c40151239 .series text{stroke:none}#chart-8e7c3dc1-bb8c-4300-bfda-962c40151239 .series text.active{opacity:1}#chart-8e7c3dc1-bb8c-4300-bfda-962c40151239 .tooltip rect{fill-opacity:0.8}#chart-8e7c3dc1-bb8c-4300-bfda-962c40151239 .tooltip text{fill-opacity:1}#chart-8e7c3dc1-bb8c-4300-bfda-962c40151239 .tooltip text tspan.label{fill-opacity:.8}</style><script type="text/javascript">window.config = {"inner_radius": 0, "print_values": false, "tooltip_font_size": 16, "xrange": null, "legend_at_bottom_columns": null, "height": 600, "legend_at_bottom": false, "show_legend": false, "show_dots": false, "explicit_size": false, "legend_font_size": 14, "y_labels_major": null, "show_minor_x_labels": true, "major_label_font_size": 10, "fill": true, "half_pie": false, "x_value_formatter": null, "style": {"opacity": ".7", "foreground": "#273417", "plot_background": "transparent", "stroke_style": "round", "foreground_light": "#000000", "transition": "200ms ease-in", "foreground_dark": "#oooooo", "stroke_dasharray": "0,0", "opacity_hover": ".9", "stroke_width": 1.0, "colors": ["#ffffff", "#000000", "#4B92D7"], "background": "#F0E1CC ", "font_family": "monospace"}, "x_label_rotation": 0, "missing_value_fill_truncation": "x", "zero": 0, "margin_right": null, "interpolation_parameters": {}, "x_labels_major": null, "rounded_bars": null, "label_font_size": 10, "show_y_labels": true, "dots_size": 2.5, "show_y_guides": true, "show_minor_y_labels": true, "x_labels": null, "y_title": null, "value_font_size": 8, "order_min": null, "disable_xml_declaration": false, "strict": false, "css": ["style.css", "graph.css"], "mode": null, "show_only_major_dots": false, "y_label_rotation": 0, "human_readable": false, "show_x_guides": false, "spacing": 10, "x_labels_major_count": null, "pretty_print": false, "tooltip_border_radius": 0, "interpolate": null, "js": ["http://kozea.github.io/pygal.js/javascripts/svg.jquery.js", "http://kozea.github.io/pygal.js/javascripts/pygal-tooltips.js"], "y_labels": null, "y_labels_major_every": null, "x_label_format": "%Y-%m-%d %H:%M:%S.%f", "interpolation_precision": 250, "x_title": null, "value_formatter": null, "no_data_font_size": 64, "logarithmic": false, "width": 800, "print_zeroes": false, "no_data_text": "No data", "truncate_legend": null, "x_labels_major_every": null, "title": "Estonia", "legend_box_size": 12, "no_prefix": false, "stroke": true, "title_font_size": 16, "include_x_axis": false, "range": null, "truncate_label": null, "margin_top": null, "margin_left": null, "y_labels_major_count": null, "margin_bottom": null, "margin": 20, "stack_from_top": false, "show_x_labels": true}</script><script type="text/javascript" xlink:href="http://kozea.github.io/pygal.js/javascripts/svg.jquery.js" /><script type="text/javascript" xlink:href="http://kozea.github.io/pygal.js/javascripts/pygal-tooltips.js" /></defs><title>Estonia</title><g class="graph stackedline-graph vertical"><rect class="background" height="600" width="800" x="0" y="0" /><g class="plot" transform="translate(60, 46)"><rect class="background" height="534" width="720.0" x="0" y="0" /><g class="axis y"><path class="line" d="M0.000000 534.000000 h720.000000" /><g class="guides"><path class="guide line" d="M0.000000 493.834121 h720.000000" /><text class="" x="-5" y="497.334120557">20.0</text></g><g class="guides"><path class="guide line" d="M0.000000 433.388741 h720.000000" /><text class="" x="-5" y="436.888740635">30.0</text></g><g class="guides"><path class="guide line" d="M0.000000 372.943361 h720.000000" /><text class="" x="-5" y="376.443360713">40.0</text></g><g class="guides"><path class="major guide line" d="M0.000000 312.497981 h720.000000" /><text class="major" x="-5" y="315.997980791">50.0</text></g><g class="guides"><path class="guide line" d="M0.000000 252.052601 h720.000000" /><text class="" x="-5" y="255.552600869">60.0</text></g><g class="guides"><path class="guide line" d="M0.000000 191.607221 h720.000000" /><text class="" x="-5" y="195.107220947">70.0</text></g><g class="guides"><path class="guide line" d="M0.000000 131.161841 h720.000000" /><text class="" x="-5" y="134.661841025">80.0</text></g><g class="guides"><path class="guide line" d="M0.000000 70.716461 h720.000000" /><text class="" x="-5" y="74.2164611024">90.0</text></g><g class="guides"><path class="major guide line" d="M0.000000 10.271081 h720.000000" /><text class="major" x="-5" y="13.7710811804">100.0</text></g></g><g class="series serie-0 color-0"><path class="line reactive" d="M13.846154 534.000000 L13.846154 475.098518 26.908563 475.490182 39.970972 475.877962 53.033382 476.307234 66.095791 476.820034 79.158200 477.442291 92.220610 478.194584 105.283019 479.060853 118.345428 479.979061 131.407837 480.864018 144.470247 481.651694 157.532656 482.325993 170.595065 482.896646 183.657475 483.366869 196.719884 483.744296 209.782293 484.036246 222.844702 484.250040 235.907112 484.380549 248.969521 484.402984 262.031930 484.287544 275.094340 484.021096 288.156749 483.617695 301.219158 483.111259 314.281567 482.538024 327.343977 481.942168 340.406386 481.374201 353.468795 480.837225 366.531205 480.369722 379.593614 480.091008 392.656023 480.147742 405.718433 480.643122 418.780842 481.636199 431.843251 483.128910 444.905660 485.098312 457.968070 487.459206 471.030479 490.112350 484.092888 492.977582 497.155298 496.021295 510.217707 499.222034 523.280116 502.591892 536.342525 506.124540 549.404935 509.843347 562.467344 513.637820 575.529753 517.221415 588.592163 520.216233 601.654572 522.348881 614.716981 523.491697 627.779390 523.730769 640.841800 523.286838 653.904209 522.500753 666.966618 521.637637 680.029028 520.780147 693.091437 519.894538 706.153846 519.071227 706.153846 534.000000" /></g><g class="series serie-1 color-1"><path class="line reactive" d="M13.846154 74.024247 L26.908563 74.459998 39.970972 74.983313 53.033382 75.591055 66.095791 76.281956 79.158200 77.052799 92.220610 77.893128 105.283019 78.788266 118.345428 79.714590 131.407837 80.636302 144.470247 81.526494 157.532656 82.363076 170.595065 83.130045 183.657475 83.833939 196.719884 84.478977 209.782293 85.060675 222.844702 85.616975 235.907112 86.124713 248.969521 86.448887 262.031930 86.415764 275.094340 85.927867 288.156749 84.945016 301.219158 83.576346 314.281567 82.041957 327.343977 80.651474 340.406386 79.634428 353.468795 79.034918 366.531205 78.817549 379.593614 79.019504 392.656023 79.672612 405.718433 80.788900 418.780842 82.450523 431.843251 84.663062 444.905660 87.263702 457.968070 89.964011 471.030479 92.504078 484.092888 94.727696 497.155298 96.651662 510.217707 98.377559 523.280116 100.112415 536.342525 102.006556 549.404935 104.110652 562.467344 106.336114 575.529753 108.538115 588.592163 110.513259 601.654572 112.113634 614.716981 113.279462 627.779390 114.074741 640.841800 114.647902 653.904209 115.215972 666.966618 115.936808 680.029028 116.868487 693.091437 117.966657 706.153846 119.286804 706.153846 519.071227 693.091437 519.894538 680.029028 520.780147 666.966618 521.637637 653.904209 522.500753 640.841800 523.286838 627.779390 523.730769 614.716981 523.491697 601.654572 522.348881 588.592163 520.216233 575.529753 517.221415 562.467344 513.637820 549.404935 509.843347 536.342525 506.124540 523.280116 502.591892 510.217707 499.222034 497.155298 496.021295 484.092888 492.977582 471.030479 490.112350 457.968070 487.459206 444.905660 485.098312 431.843251 483.128910 418.780842 481.636199 405.718433 480.643122 392.656023 480.147742 379.593614 480.091008 366.531205 480.369722 353.468795 480.837225 340.406386 481.374201 327.343977 481.942168 314.281567 482.538024 301.219158 483.111259 288.156749 483.617695 275.094340 484.021096 262.031930 484.287544 248.969521 484.402984 235.907112 484.380549 222.844702 484.250040 209.782293 484.036246 196.719884 483.744296 183.657475 483.366869 170.595065 482.896646 157.532656 482.325993 144.470247 481.651694 131.407837 480.864018 118.345428 479.979061 105.283019 479.060853 92.220610 478.194584 79.158200 477.442291 66.095791 476.820034 53.033382 476.307234 39.970972 475.877962 26.908563 475.490182 13.846154 475.098518" /></g><g class="series serie-2 color-2"><path class="line reactive" d="M13.846154 10.271098 L26.908563 10.272568 39.970972 10.273012 53.033382 10.271583 66.095791 10.270119 79.158200 10.271093 92.220610 10.269242 105.283019 10.269231 118.345428 10.270632 131.407837 10.271058 144.470247 10.271087 157.532656 10.272857 170.595065 10.269784 183.657475 10.269790 196.719884 10.271087 209.782293 10.271064 222.844702 10.270649 235.907112 10.271502 248.969521 10.271473 262.031930 10.271496 275.094340 10.271064 288.156749 10.270263 301.219158 10.271888 314.281567 10.271496 327.343977 10.271877 340.406386 10.271064 353.468795 10.271064 366.531205 10.271473 379.593614 10.270309 392.656023 10.270701 405.718433 10.271093 418.780842 10.271052 431.843251 10.270274 444.905660 10.270660 457.968070 10.271519 471.030479 10.271087 484.092888 10.270660 497.155298 10.271946 510.217707 10.270626 523.280116 10.271496 536.342525 10.271070 549.404935 10.271975 562.467344 10.271093 575.529753 10.271104 588.592163 10.271980 601.654572 10.271098 614.716981 10.271537 627.779390 10.271058 640.841800 10.270614 653.904209 10.271537 666.966618 10.271104 680.029028 10.272932 693.091437 10.271554 706.153846 10.271081 706.153846 119.286804 693.091437 117.966657 680.029028 116.868487 666.966618 115.936808 653.904209 115.215972 640.841800 114.647902 627.779390 114.074741 614.716981 113.279462 601.654572 112.113634 588.592163 110.513259 575.529753 108.538115 562.467344 106.336114 549.404935 104.110652 536.342525 102.006556 523.280116 100.112415 510.217707 98.377559 497.155298 96.651662 484.092888 94.727696 471.030479 92.504078 457.968070 89.964011 444.905660 87.263702 431.843251 84.663062 418.780842 82.450523 405.718433 80.788900 392.656023 79.672612 379.593614 79.019504 366.531205 78.817549 353.468795 79.034918 340.406386 79.634428 327.343977 80.651474 314.281567 82.041957 301.219158 83.576346 288.156749 84.945016 275.094340 85.927867 262.031930 86.415764 248.969521 86.448887 235.907112 86.124713 222.844702 85.616975 209.782293 85.060675 196.719884 84.478977 183.657475 83.833939 170.595065 83.130045 157.532656 82.363076 144.470247 81.526494 131.407837 80.636302 118.345428 79.714590 105.283019 78.788266 92.220610 77.893128 79.158200 77.052799 66.095791 76.281956 53.033382 75.591055 39.970972 74.983313 26.908563 74.459998 13.846154 74.024247" /></g></g><g class="titles"><text class="title plot_title" x="400.0" y="26">Estonia</text></g><g class="plot overlay" transform="translate(60, 46)"><g class="series serie-0 color-0" /><g class="series serie-1 color-1" /><g class="series serie-2 color-2" /></g><g class="plot text-overlay" transform="translate(60, 46)"><g class="series serie-0 color-0" /><g class="series serie-1 color-1" /><g class="series serie-2 color-2" /></g><g class="plot tooltip-overlay" transform="translate(60, 46)"><g class="tooltip" style="opacity: 0" transform="translate(0 0)"><a><rect class="tooltip-box" height="0" rx="0" ry="0" width="0" /><text class="text"><tspan class="label" /><tspan class="value" /></text></a></g></g></g></svg>