<?xml version='1.0' encoding='utf-8'?>
<svg xmlns:xlink="http://www.w3.org/1999/xlink" class="pygal-chart" id="chart-f0f89775-f760-4fba-adb3-4c08772baa83" viewBox="0 0 800 600" xmlns="http://www.w3.org/2000/svg"><!--Generated with pygal 1.7.0 (etree) ©Kozea 2011-2014 on 2015-04-29--><!--http://pygal.org--><!--http://github.com/Kozea/pygal--><defs><style type="text/css">#chart-f0f89775-f760-4fba-adb3-4c08772baa83 .title{font-family:"monospace";font-size:16px}#chart-f0f89775-f760-4fba-adb3-4c08772baa83 .legends .legend text{font-family:"monospace";font-size:14px}#chart-f0f89775-f760-4fba-adb3-4c08772baa83 .axis text{font-family:"monospace";font-size:10px}#chart-f0f89775-f760-4fba-adb3-4c08772baa83 .axis text.major{font-family:"monospace";font-size:10px}#chart-f0f89775-f760-4fba-adb3-4c08772baa83 .series text{font-family:"monospace";font-size:8px}#chart-f0f89775-f760-4fba-adb3-4c08772baa83 .tooltip text{font-family:"monospace";font-size:16px}#chart-f0f89775-f760-4fba-adb3-4c08772baa83 text.no_data{font-size:64px}
#chart-f0f89775-f760-4fba-adb3-4c08772baa83{background-color:#F0E1CC}#chart-f0f89775-f760-4fba-adb3-4c08772baa83 path,#chart-f0f89775-f760-4fba-adb3-4c08772baa83 line,#chart-f0f89775-f760-4fba-adb3-4c08772baa83 rect,#chart-f0f89775-f760-4fba-adb3-4c08772baa83 circle{-webkit-transition:200ms ease-in;-moz-transition:200ms ease-in;transition:200ms ease-in}#chart-f0f89775-f760-4fba-adb3-4c08772baa83 .graph &gt; .background{fill:#F0E1CC}#chart-f0f89775-f760-4fba-adb3-4c08772baa83 .plot &gt; .background{fill:transparent}#chart-f0f89775-f760-4fba-adb3-4c08772baa83 .graph{fill:#273417}#chart-f0f89775-f760-4fba-adb3-4c08772baa83 text.no_data{fill:#000000}#chart-f0f89775-f760-4fba-adb3-4c08772baa83 .title{fill:#000000}#chart-f0f89775-f760-4fba-adb3-4c08772baa83 .legends .legend text{fill:#273417}#chart-f0f89775-f760-4fba-adb3-4c08772baa83 .legends .legend:hover text{fill:#000000}#chart-f0f89775-f760-4fba-adb3-4c08772baa83 .axis .line{stroke:#000000}#chart-f0f89775-f760-4fba-adb3-4c08772baa83 .axis .guide.line{stroke:#oooooo}#chart-f0f89775-f760-4fba-adb3-4c08772baa83 .axis .major.line{stroke:#273417}#chart-f0f89775-f760-4fba-adb3-4c08772baa83 .axis text.major{stroke:#000000;fill:#000000}#chart-f0f89775-f760-4fba-adb3-4c08772baa83 .axis.y .guides:hover .guide.line,#chart-f0f89775-f760-4fba-adb3-4c08772baa83 .line-graph .axis.x .guides:hover .guide.line,#chart-f0f89775-f760-4fba-adb3-4c08772baa83 .stackedline-graph .axis.x .guides:hover .guide.line,#chart-f0f89775-f760-4fba-adb3-4c08772baa83 .xy-graph .axis.x .guides:hover .guide.line{stroke:#000000}#chart-f0f89775-f760-4fba-adb3-4c08772baa83 .axis .guides:hover text{fill:#000000}#chart-f0f89775-f760-4fba-adb3-4c08772baa83 .reactive{fill-opacity:.7}#chart-f0f89775-f760-4fba-adb3-4c08772baa83 .reactive.active,#chart-f0f89775-f760-4fba-adb3-4c08772baa83 .active .reactive{fill-opacity:.9}#chart-f0f89775-f760-4fba-adb3-4c08772baa83 .series{stroke-width:1.0;stroke-linejoin:round;stroke-linecap:round;stroke-dasharray:0,0}#chart-f0f89775-f760-4fba-adb3-4c08772baa83 .series text{fill:#000000}#chart-f0f89775-f760-4fba-adb3-4c08772baa83 .tooltip rect{fill:transparent;stroke:#000000}#chart-f0f89775-f760-4fba-adb3-4c08772baa83 .tooltip text{fill:#000000}#chart-f0f89775-f760-4fba-adb3-4c08772baa83 .map-element{fill:#273417;stroke:#oooooo !important;opacity:.9;stroke-width:3;-webkit-transition:250ms;-moz-transition:250ms;-o-transition:250ms;transition:250ms}#chart-f0f89775-f760-4fba-adb3-4c08772baa83 .map-element:hover{opacity:1;stroke-width:10}#chart-f0f89775-f760-4fba-adb3-4c08772baa83 .color-0,#chart-f0f89775-f760-4fba-adb3-4c08772baa83 .color-0 a:visited{stroke:#9C313B;fill:#9C313B}#chart-f0f89775-f760-4fba-adb3-4c08772baa83 .color-1,#chart-f0f89775-f760-4fba-adb3-4c08772baa83 .color-1 a:visited{stroke:#ffffff;fill:#ffffff}#chart-f0f89775-f760-4fba-adb3-4c08772baa83 .color-2,#chart-f0f89775-f760-4fba-adb3-4c08772baa83 .color-2 a:visited{stroke:#9C313B;fill:#9C313B}#chart-f0f89775-f760-4fba-adb3-4c08772baa83 .color-3,#chart-f0f89775-f760-4fba-adb3-4c08772baa83 .color-3 a:visited{stroke:#9C313B;fill:#9C313B}#chart-f0f89775-f760-4fba-adb3-4c08772baa83 .color-4,#chart-f0f89775-f760-4fba-adb3-4c08772baa83 .color-4 a:visited{stroke:#ffffff;fill:#ffffff}#chart-f0f89775-f760-4fba-adb3-4c08772baa83 .color-5,#chart-f0f89775-f760-4fba-adb3-4c08772baa83 .color-5 a:visited{stroke:#9C313B;fill:#9C313B}#chart-f0f89775-f760-4fba-adb3-4c08772baa83 .color-6,#chart-f0f89775-f760-4fba-adb3-4c08772baa83 .color-6 a:visited{stroke:#9C313B;fill:#9C313B}#chart-f0f89775-f760-4fba-adb3-4c08772baa83 .color-7,#chart-f0f89775-f760-4fba-adb3-4c08772baa83 .color-7 a:visited{stroke:#ffffff;fill:#ffffff}#chart-f0f89775-f760-4fba-adb3-4c08772baa83 .color-8,#chart-f0f89775-f760-4fba-adb3-4c08772baa83 .color-8 a:visited{stroke:#9C313B;fill:#9C313B}#chart-f0f89775-f760-4fba-adb3-4c08772baa83 .color-9,#chart-f0f89775-f760-4fba-adb3-4c08772baa83 .color-9 a:visited{stroke:#9C313B;fill:#9C313B}#chart-f0f89775-f760-4fba-adb3-4c08772baa83 .color-10,#chart-f0f89775-f760-4fba-adb3-4c08772baa83 .color-10 a:visited{stroke:#ffffff;fill:#ffffff}#chart-f0f89775-f760-4fba-adb3-4c08772baa83 .color-11,#chart-f0f89775-f760-4fba-adb3-4c08772baa83 .color-11 a:visited{stroke:#9C313B;fill:#9C313B}#chart-f0f89775-f760-4fba-adb3-4c08772baa83 .color-12,#chart-f0f89775-f760-4fba-adb3-4c08772baa83 .color-12 a:visited{stroke:#9C313B;fill:#9C313B}#chart-f0f89775-f760-4fba-adb3-4c08772baa83 .color-13,#chart-f0f89775-f760-4fba-adb3-4c08772baa83 .color-13 a:visited{stroke:#ffffff;fill:#ffffff}#chart-f0f89775-f760-4fba-adb3-4c08772baa83 .color-14,#chart-f0f89775-f760-4fba-adb3-4c08772baa83 .color-14 a:visited{stroke:#9C313B;fill:#9C313B}#chart-f0f89775-f760-4fba-adb3-4c08772baa83 .color-15,#chart-f0f89775-f760-4fba-adb3-4c08772baa83 .color-15 a:visited{stroke:#9C313B;fill:#9C313B}
#chart-f0f89775-f760-4fba-adb3-4c08772baa83 text.no_data{text-anchor:middle}#chart-f0f89775-f760-4fba-adb3-4c08772baa83 .guide.line{fill-opacity:0}#chart-f0f89775-f760-4fba-adb3-4c08772baa83 .centered{text-anchor:middle}#chart-f0f89775-f760-4fba-adb3-4c08772baa83 .title{text-anchor:middle}#chart-f0f89775-f760-4fba-adb3-4c08772baa83 .legends .legend text{fill-opacity:1}#chart-f0f89775-f760-4fba-adb3-4c08772baa83 .axis.x text{text-anchor:middle}#chart-f0f89775-f760-4fba-adb3-4c08772baa83 .axis.x:not(.web) text[transform]{text-anchor:start}#chart-f0f89775-f760-4fba-adb3-4c08772baa83 .axis.y text{text-anchor:end}#chart-f0f89775-f760-4fba-adb3-4c08772baa83 .axis.y2 text{text-anchor:start}#chart-f0f89775-f760-4fba-adb3-4c08772baa83 .axis.y .logarithmic text:not(.major),#chart-f0f89775-f760-4fba-adb3-4c08772baa83 .axis.y2 .logarithmic text:not(.major){font-size:50%}#chart-f0f89775-f760-4fba-adb3-4c08772baa83 .axis .guide.line{stroke-dasharray:4,4}#chart-f0f89775-f760-4fba-adb3-4c08772baa83 .axis .major.guide.line{stroke-dasharray:6,6}#chart-f0f89775-f760-4fba-adb3-4c08772baa83 .axis text.major{stroke-width:0.5px}#chart-f0f89775-f760-4fba-adb3-4c08772baa83 .horizontal .axis.y .guide.line,#chart-f0f89775-f760-4fba-adb3-4c08772baa83 .horizontal .axis.y2 .guide.line,#chart-f0f89775-f760-4fba-adb3-4c08772baa83 .vertical .axis.x .guide.line{opacity:0}#chart-f0f89775-f760-4fba-adb3-4c08772baa83 .horizontal .axis.always_show .guide.line,#chart-f0f89775-f760-4fba-adb3-4c08772baa83 .vertical .axis.always_show .guide.line{opacity:1 !important}#chart-f0f89775-f760-4fba-adb3-4c08772baa83 .axis.y .guides:hover .guide.line,#chart-f0f89775-f760-4fba-adb3-4c08772baa83 .axis.y2 .guides:hover .guide.line,#chart-f0f89775-f760-4fba-adb3-4c08772baa83 .axis.x .guides:hover .guide.line{opacity:1}#chart-f0f89775-f760-4fba-adb3-4c08772baa83 .axis .guides:hover text{opacity:1}#chart-f0f89775-f760-4fba-adb3-4c08772baa83 .nofill{fill:none}#chart-f0f89775-f760-4fba-adb3-4c08772baa83 .subtle-fill{fill-opacity:.2}#chart-f0f89775-f760-4fba-adb3-4c08772baa83 .dot{stroke-width:1px;fill-opacity:1}#chart-f0f89775-f760-4fba-adb3-4c08772baa83 .dot.active{stroke-width:5px}#chart-f0f89775-f760-4fba-adb3-4c08772baa83 .series text{stroke:none}#chart-f0f89775-f760-4fba-adb3-4c08772baa83 .series text.active{opacity:1}#chart-f0f89775-f760-4fba-adb3-4c08772baa83 .tooltip rect{fill-opacity:0.8}#chart-f0f89775-f760-4fba-adb3-4c08772baa83 .tooltip text{fill-opacity:1}#chart-f0f89775-f760-4fba-adb3-4c08772baa83 .tooltip text tspan.label{fill-opacity:.8}</style><script type="text/javascript">window.config = {"inner_radius": 0, "print_values": false, "tooltip_font_size": 16, "xrange": null, "legend_at_bottom_columns": null, "height": 600, "legend_at_bottom": false, "show_legend": false, "show_dots": false, "explicit_size": false, "legend_font_size": 14, "y_labels_major": null, "show_minor_x_labels": true, "major_label_font_size": 10, "fill": true, "half_pie": false, "x_value_formatter": null, "style": {"opacity": ".7", "foreground": "#273417", "plot_background": "transparent", "stroke_style": "round", "foreground_light": "#000000", "transition": "200ms ease-in", "foreground_dark": "#oooooo", "stroke_dasharray": "0,0", "opacity_hover": ".9", "stroke_width": 1.0, "colors": ["#9C313B", "#ffffff", "#9C313B"], "background": "#F0E1CC ", "font_family": "monospace"}, "x_label_rotation": 0, "missing_value_fill_truncation": "x", "zero": 0, "margin_right": null, "interpolation_parameters": {}, "x_labels_major": null, "rounded_bars": null, "label_font_size": 10, "show_y_labels": true, "dots_size": 2.5, "show_y_guides": true, "show_minor_y_labels": true, "x_labels": null, "y_title": null, "value_font_size": 8, "order_min": null, "disable_xml_declaration": false, "strict": false, "css": ["style.css", "graph.css"], "mode": null, "show_only_major_dots": false, "y_label_rotation": 0, "human_readable": false, "show_x_guides": false, "spacing": 10, "x_labels_major_count": null, "pretty_print": false, "tooltip_border_radius": 0, "interpolate": null, "js": ["http://kozea.github.io/pygal.js/javascripts/svg.jquery.js", "http://kozea.github.io/pygal.js/javascripts/pygal-tooltips.js"], "y_labels": null, "y_labels_major_every": null, "x_label_format": "%Y-%m-%d %H:%M:%S.%f", "interpolation_precision": 250, "x_title": null, "value_formatter": null, "no_data_font_size": 64, "logarithmic": false, "width": 800, "print_zeroes": false, "no_data_text": "No data", "truncate_legend": null, "x_labels_major_every": null, "title": "Latvia", "legend_box_size": 12, "no_prefix": false, "stroke": true, "title_font_size": 16, "include_x_axis": false, "range": null, "truncate_label": null, "margin_top": null, "margin_left": null, "y_labels_major_count": null, "margin_bottom": null, "margin": 20, "stack_from_top": false, "show_x_labels": true}</script><script type="text/javascript" xlink:href="http://kozea.github.io/pygal.js/javascripts/svg.jquery.js" /><script type="text/javascript" xlink:href="http://kozea.github.io/pygal.js/javascripts/pygal-tooltips.js" /></defs><title>Latvia</title><g class="graph stackedline-graph vertical"><rect class="background" height="600" width="800" x="0" y="0" /><g class="plot" transform="translate(60, 46)"><rect class="background" height="534" width="720.0" x="0" y="0" /><g class="axis y"><path class="line" d="M0.000000 534.000000 h720.000000" /><g class="guides"><path class="guide line" d="M0.000000 488.320801 h720.000000" /><text class="" x="-5" y="491.820801225">20.0</text></g><g class="guides"><path class="guide line" d="M0.000000 428.564512 h720.000000" /><text class="" x="-5" y="432.064511635">30.0</text></g><g class="guides"><path class="guide line" d="M0.000000 368.808222 h720.000000" /><text class="" x="-5" y="372.308222045">40.0</text></g><g class="guides"><path class="major guide line" d="M0.000000 309.051932 h720.000000" /><text class="major" x="-5" y="312.551932456">50.0</text></g><g class="guides"><path class="guide line" d="M0.000000 249.295643 h720.000000" /><text class="" x="-5" y="252.795642866">60.0</text></g><g class="guides"><path class="guide line" d="M0.000000 189.539353 h720.000000" /><text class="" x="-5" y="193.039353276">70.0</text></g><g class="guides"><path class="guide line" d="M0.000000 129.783064 h720.000000" /><text class="" x="-5" y="133.283063686">80.0</text></g><g class="guides"><path class="guide line" d="M0.000000 70.026774 h720.000000" /><text class="" x="-5" y="73.526774096">90.0</text></g><g class="guides"><path class="major guide line" d="M0.000000 10.270485 h720.000000" /><text class="major" x="-5" y="13.7704845061">100.0</text></g></g><g class="series serie-0 color-0"><path class="line reactive" d="M13.846154 534.000000 L13.846154 474.971159 26.908563 475.276627 39.970972 475.248953 53.033382 475.066842 66.095791 474.962406 79.158200 475.093684 92.220610 475.514894 105.283019 476.176456 118.345428 477.002304 131.407837 477.873537 144.470247 478.703374 157.532656 479.460711 170.595065 480.167933 183.657475 480.854137 196.719884 481.565781 209.782293 482.324668 222.844702 483.163589 235.907112 484.038321 248.969521 484.807568 262.031930 485.283145 275.094340 485.343302 288.156749 484.945742 301.219158 484.169519 314.281567 483.162084 327.343977 482.134784 340.406386 481.249497 353.468795 480.567647 366.531205 480.080992 379.593614 479.792359 392.656023 479.682144 405.718433 479.746711 418.780842 479.978185 431.843251 480.427354 444.905660 481.215612 457.968070 482.504477 471.030479 484.397859 484.092888 486.919203 497.155298 489.992659 510.217707 493.494495 523.280116 497.260880 536.342525 501.159671 549.404935 505.176940 562.467344 509.261045 575.529753 513.199100 588.592163 516.712493 601.654572 519.580171 614.716981 521.691777 627.779390 523.051495 640.841800 523.697010 653.904209 523.730769 666.966618 523.249198 680.029028 522.252500 693.091437 520.765380 706.153846 519.209269 706.153846 534.000000" /></g><g class="series serie-1 color-1"><path class="line reactive" d="M13.846154 73.509849 L26.908563 73.555998 39.970972 73.841941 53.033382 74.354355 66.095791 75.065850 79.158200 75.950191 92.220610 77.001871 105.283019 78.202996 118.345428 79.490949 131.407837 80.786857 144.470247 82.029196 157.532656 83.181072 170.595065 84.228854 183.657475 85.170548 196.719884 86.010528 209.782293 86.746529 222.844702 87.410565 235.907112 87.976331 248.969521 88.321177 262.031930 88.282676 275.094340 87.766387 288.156749 86.738904 301.219158 85.303808 314.281567 83.677940 327.343977 82.159174 340.406386 80.975362 353.468795 80.164308 366.531205 79.704050 379.593614 79.662015 392.656023 80.101028 405.718433 81.053606 418.780842 82.612491 431.843251 84.764417 444.905660 87.294731 457.968070 89.857073 471.030479 92.162228 484.092888 94.043118 497.155298 95.551910 510.217707 96.875982 523.280116 98.326692 536.342525 100.137943 549.404935 102.386258 562.467344 104.965924 575.529753 107.717352 588.592163 110.387458 601.654572 112.772562 614.716981 114.819293 627.779390 116.563338 640.841800 118.002719 653.904209 119.159234 666.966618 120.054995 680.029028 120.668551 693.091437 121.003999 706.153846 121.240868 706.153846 519.209269 693.091437 520.765380 680.029028 522.252500 666.966618 523.249198 653.904209 523.730769 640.841800 523.697010 627.779390 523.051495 614.716981 521.691777 601.654572 519.580171 588.592163 516.712493 575.529753 513.199100 562.467344 509.261045 549.404935 505.176940 536.342525 501.159671 523.280116 497.260880 510.217707 493.494495 497.155298 489.992659 484.092888 486.919203 471.030479 484.397859 457.968070 482.504477 444.905660 481.215612 431.843251 480.427354 418.780842 479.978185 405.718433 479.746711 392.656023 479.682144 379.593614 479.792359 366.531205 480.080992 353.468795 480.567647 340.406386 481.249497 327.343977 482.134784 314.281567 483.162084 301.219158 484.169519 288.156749 484.945742 275.094340 485.343302 262.031930 485.283145 248.969521 484.807568 235.907112 484.038321 222.844702 483.163589 209.782293 482.324668 196.719884 481.565781 183.657475 480.854137 170.595065 480.167933 157.532656 479.460711 144.470247 478.703374 131.407837 477.873537 118.345428 477.002304 105.283019 476.176456 92.220610 475.514894 79.158200 475.093684 66.095791 474.962406 53.033382 475.066842 39.970972 475.248953 26.908563 475.276627 13.846154 474.971159" /></g><g class="series serie-2 color-2"><path class="line reactive" d="M13.846154 10.270467 L26.908563 10.270769 39.970972 10.270741 53.033382 10.270490 66.095791 10.269966 79.158200 10.270462 92.220610 10.270239 105.283019 10.271014 118.345428 10.271744 131.407837 10.270975 144.470247 10.270462 157.532656 10.270747 170.595065 10.270257 183.657475 10.270496 196.719884 10.270234 209.782293 10.270507 222.844702 10.270992 235.907112 10.270234 248.969521 10.270251 262.031930 10.271191 275.094340 10.270467 288.156749 10.270239 301.219158 10.270479 314.281567 10.270479 327.343977 10.269778 340.406386 10.270467 353.468795 10.269784 366.531205 10.270507 379.593614 10.270684 392.656023 10.270946 405.718433 10.270490 418.780842 10.270051 431.843251 10.270490 444.905660 10.270718 457.968070 10.271191 471.030479 10.270496 484.092888 10.270479 497.155298 10.269231 510.217707 10.270997 523.280116 10.270228 536.342525 10.270467 549.404935 10.270251 562.467344 10.270222 575.529753 10.269972 588.592163 10.271294 601.654572 10.270502 614.716981 10.271032 627.779390 10.269647 640.841800 10.269932 653.904209 10.270205 666.966618 10.270502 680.029028 10.269920 693.091437 10.271043 706.153846 10.270485 706.153846 121.240868 693.091437 121.003999 680.029028 120.668551 666.966618 120.054995 653.904209 119.159234 640.841800 118.002719 627.779390 116.563338 614.716981 114.819293 601.654572 112.772562 588.592163 110.387458 575.529753 107.717352 562.467344 104.965924 549.404935 102.386258 536.342525 100.137943 523.280116 98.326692 510.217707 96.875982 497.155298 95.551910 484.092888 94.043118 471.030479 92.162228 457.968070 89.857073 444.905660 87.294731 431.843251 84.764417 418.780842 82.612491 405.718433 81.053606 392.656023 80.101028 379.593614 79.662015 366.531205 79.704050 353.468795 80.164308 340.406386 80.975362 327.343977 82.159174 314.281567 83.677940 301.219158 85.303808 288.156749 86.738904 275.094340 87.766387 262.031930 88.282676 248.969521 88.321177 235.907112 87.976331 222.844702 87.410565 209.782293 86.746529 196.719884 86.010528 183.657475 85.170548 170.595065 84.228854 157.532656 83.181072 144.470247 82.029196 131.407837 80.786857 118.345428 79.490949 105.283019 78.202996 92.220610 77.001871 79.158200 75.950191 66.095791 75.065850 53.033382 74.354355 39.970972 73.841941 26.908563 73.555998 13.846154 73.509849" /></g></g><g class="titles"><text class="title plot_title" x="400.0" y="26">Latvia</text></g><g class="plot overlay" transform="translate(60, 46)"><g class="series serie-0 color-0" /><g class="series serie-1 color-1" /><g class="series serie-2 color-2" /></g><g class="plot text-overlay" transform="translate(60, 46)"><g class="series serie-0 color-0" /><g class="series serie-1 color-1" /><g class="series serie-2 color-2" /></g><g class="plot tooltip-overlay" transform="translate(60, 46)"><g class="tooltip" style="opacity: 0" transform="translate(0 0)"><a><rect class="tooltip-box" height="0" rx="0" ry="0" width="0" /><text class="text"><tspan class="label" /><tspan class="value" /></text></a></g></g></g></svg>