<?xml version='1.0' encoding='utf-8'?>
<svg xmlns:xlink="http://www.w3.org/1999/xlink" class="pygal-chart" id="chart-c10774e3-8a6a-41e1-a905-b6ffb44c3111" viewBox="0 0 800 600" xmlns="http://www.w3.org/2000/svg"><!--Generated with pygal 1.7.0 (etree) ©Kozea 2011-2014 on 2015-04-29--><!--http://pygal.org--><!--http://github.com/Kozea/pygal--><defs><style type="text/css">#chart-c10774e3-8a6a-41e1-a905-b6ffb44c3111 .title{font-family:"monospace";font-size:16px}#chart-c10774e3-8a6a-41e1-a905-b6ffb44c3111 .legends .legend text{font-family:"monospace";font-size:14px}#chart-c10774e3-8a6a-41e1-a905-b6ffb44c3111 .axis text{font-family:"monospace";font-size:10px}#chart-c10774e3-8a6a-41e1-a905-b6ffb44c3111 .axis text.major{font-family:"monospace";font-size:10px}#chart-c10774e3-8a6a-41e1-a905-b6ffb44c3111 .series text{font-family:"monospace";font-size:8px}#chart-c10774e3-8a6a-41e1-a905-b6ffb44c3111 .tooltip text{font-family:"monospace";font-size:16px}#chart-c10774e3-8a6a-41e1-a905-b6ffb44c3111 text.no_data{font-size:64px}
#chart-c10774e3-8a6a-41e1-a905-b6ffb44c3111{background-color:#F0E1CC}#chart-c10774e3-8a6a-41e1-a905-b6ffb44c3111 path,#chart-c10774e3-8a6a-41e1-a905-b6ffb44c3111 line,#chart-c10774e3-8a6a-41e1-a905-b6ffb44c3111 rect,#chart-c10774e3-8a6a-41e1-a905-b6ffb44c3111 circle{-webkit-transition:200ms ease-in;-moz-transition:200ms ease-in;transition:200ms ease-in}#chart-c10774e3-8a6a-41e1-a905-b6ffb44c3111 .graph &gt; .background{fill:#F0E1CC}#chart-c10774e3-8a6a-41e1-a905-b6ffb44c3111 .plot &gt; .background{fill:transparent}#chart-c10774e3-8a6a-41e1-a905-b6ffb44c3111 .graph{fill:#273417}#chart-c10774e3-8a6a-41e1-a905-b6ffb44c3111 text.no_data{fill:#000000}#chart-c10774e3-8a6a-41e1-a905-b6ffb44c3111 .title{fill:#000000}#chart-c10774e3-8a6a-41e1-a905-b6ffb44c3111 .legends .legend text{fill:#273417}#chart-c10774e3-8a6a-41e1-a905-b6ffb44c3111 .legends .legend:hover text{fill:#000000}#chart-c10774e3-8a6a-41e1-a905-b6ffb44c3111 .axis .line{stroke:#000000}#chart-c10774e3-8a6a-41e1-a905-b6ffb44c3111 .axis .guide.line{stroke:#oooooo}#chart-c10774e3-8a6a-41e1-a905-b6ffb44c3111 .axis .major.line{stroke:#273417}#chart-c10774e3-8a6a-41e1-a905-b6ffb44c3111 .axis text.major{stroke:#000000;fill:#000000}#chart-c10774e3-8a6a-41e1-a905-b6ffb44c3111 .axis.y .guides:hover .guide.line,#chart-c10774e3-8a6a-41e1-a905-b6ffb44c3111 .line-graph .axis.x .guides:hover .guide.line,#chart-c10774e3-8a6a-41e1-a905-b6ffb44c3111 .stackedline-graph .axis.x .guides:hover .guide.line,#chart-c10774e3-8a6a-41e1-a905-b6ffb44c3111 .xy-graph .axis.x .guides:hover .guide.line{stroke:#000000}#chart-c10774e3-8a6a-41e1-a905-b6ffb44c3111 .axis .guides:hover text{fill:#000000}#chart-c10774e3-8a6a-41e1-a905-b6ffb44c3111 .reactive{fill-opacity:.7}#chart-c10774e3-8a6a-41e1-a905-b6ffb44c3111 .reactive.active,#chart-c10774e3-8a6a-41e1-a905-b6ffb44c3111 .active .reactive{fill-opacity:.9}#chart-c10774e3-8a6a-41e1-a905-b6ffb44c3111 .series{stroke-width:1.0;stroke-linejoin:round;stroke-linecap:round;stroke-dasharray:0,0}#chart-c10774e3-8a6a-41e1-a905-b6ffb44c3111 .series text{fill:#000000}#chart-c10774e3-8a6a-41e1-a905-b6ffb44c3111 .tooltip rect{fill:transparent;stroke:#000000}#chart-c10774e3-8a6a-41e1-a905-b6ffb44c3111 .tooltip text{fill:#000000}#chart-c10774e3-8a6a-41e1-a905-b6ffb44c3111 .map-element{fill:#273417;stroke:#oooooo !important;opacity:.9;stroke-width:3;-webkit-transition:250ms;-moz-transition:250ms;-o-transition:250ms;transition:250ms}#chart-c10774e3-8a6a-41e1-a905-b6ffb44c3111 .map-element:hover{opacity:1;stroke-width:10}#chart-c10774e3-8a6a-41e1-a905-b6ffb44c3111 .color-0,#chart-c10774e3-8a6a-41e1-a905-b6ffb44c3111 .color-0 a:visited{stroke:#BF2931;fill:#BF2931}#chart-c10774e3-8a6a-41e1-a905-b6ffb44c3111 .color-1,#chart-c10774e3-8a6a-41e1-a905-b6ffb44c3111 .color-1 a:visited{stroke:#0A6945;fill:#0A6945}#chart-c10774e3-8a6a-41e1-a905-b6ffb44c3111 .color-2,#chart-c10774e3-8a6a-41e1-a905-b6ffb44c3111 .color-2 a:visited{stroke:#FCB831;fill:#FCB831}#chart-c10774e3-8a6a-41e1-a905-b6ffb44c3111 .color-3,#chart-c10774e3-8a6a-41e1-a905-b6ffb44c3111 .color-3 a:visited{stroke:#BF2931;fill:#BF2931}#chart-c10774e3-8a6a-41e1-a905-b6ffb44c3111 .color-4,#chart-c10774e3-8a6a-41e1-a905-b6ffb44c3111 .color-4 a:visited{stroke:#0A6945;fill:#0A6945}#chart-c10774e3-8a6a-41e1-a905-b6ffb44c3111 .color-5,#chart-c10774e3-8a6a-41e1-a905-b6ffb44c3111 .color-5 a:visited{stroke:#FCB831;fill:#FCB831}#chart-c10774e3-8a6a-41e1-a905-b6ffb44c3111 .color-6,#chart-c10774e3-8a6a-41e1-a905-b6ffb44c3111 .color-6 a:visited{stroke:#BF2931;fill:#BF2931}#chart-c10774e3-8a6a-41e1-a905-b6ffb44c3111 .color-7,#chart-c10774e3-8a6a-41e1-a905-b6ffb44c3111 .color-7 a:visited{stroke:#0A6945;fill:#0A6945}#chart-c10774e3-8a6a-41e1-a905-b6ffb44c3111 .color-8,#chart-c10774e3-8a6a-41e1-a905-b6ffb44c3111 .color-8 a:visited{stroke:#FCB831;fill:#FCB831}#chart-c10774e3-8a6a-41e1-a905-b6ffb44c3111 .color-9,#chart-c10774e3-8a6a-41e1-a905-b6ffb44c3111 .color-9 a:visited{stroke:#BF2931;fill:#BF2931}#chart-c10774e3-8a6a-41e1-a905-b6ffb44c3111 .color-10,#chart-c10774e3-8a6a-41e1-a905-b6ffb44c3111 .color-10 a:visited{stroke:#0A6945;fill:#0A6945}#chart-c10774e3-8a6a-41e1-a905-b6ffb44c3111 .color-11,#chart-c10774e3-8a6a-41e1-a905-b6ffb44c3111 .color-11 a:visited{stroke:#FCB831;fill:#FCB831}#chart-c10774e3-8a6a-41e1-a905-b6ffb44c3111 .color-12,#chart-c10774e3-8a6a-41e1-a905-b6ffb44c3111 .color-12 a:visited{stroke:#BF2931;fill:#BF2931}#chart-c10774e3-8a6a-41e1-a905-b6ffb44c3111 .color-13,#chart-c10774e3-8a6a-41e1-a905-b6ffb44c3111 .color-13 a:visited{stroke:#0A6945;fill:#0A6945}#chart-c10774e3-8a6a-41e1-a905-b6ffb44c3111 .color-14,#chart-c10774e3-8a6a-41e1-a905-b6ffb44c3111 .color-14 a:visited{stroke:#FCB831;fill:#FCB831}#chart-c10774e3-8a6a-41e1-a905-b6ffb44c3111 .color-15,#chart-c10774e3-8a6a-41e1-a905-b6ffb44c3111 .color-15 a:visited{stroke:#BF2931;fill:#BF2931}
#chart-c10774e3-8a6a-41e1-a905-b6ffb44c3111 text.no_data{text-anchor:middle}#chart-c10774e3-8a6a-41e1-a905-b6ffb44c3111 .guide.line{fill-opacity:0}#chart-c10774e3-8a6a-41e1-a905-b6ffb44c3111 .centered{text-anchor:middle}#chart-c10774e3-8a6a-41e1-a905-b6ffb44c3111 .title{text-anchor:middle}#chart-c10774e3-8a6a-41e1-a905-b6ffb44c3111 .legends .legend text{fill-opacity:1}#chart-c10774e3-8a6a-41e1-a905-b6ffb44c3111 .axis.x text{text-anchor:middle}#chart-c10774e3-8a6a-41e1-a905-b6ffb44c3111 .axis.x:not(.web) text[transform]{text-anchor:start}#chart-c10774e3-8a6a-41e1-a905-b6ffb44c3111 .axis.y text{text-anchor:end}#chart-c10774e3-8a6a-41e1-a905-b6ffb44c3111 .axis.y2 text{text-anchor:start}#chart-c10774e3-8a6a-41e1-a905-b6ffb44c3111 .axis.y .logarithmic text:not(.major),#chart-c10774e3-8a6a-41e1-a905-b6ffb44c3111 .axis.y2 .logarithmic text:not(.major){font-size:50%}#chart-c10774e3-8a6a-41e1-a905-b6ffb44c3111 .axis .guide.line{stroke-dasharray:4,4}#chart-c10774e3-8a6a-41e1-a905-b6ffb44c3111 .axis .major.guide.line{stroke-dasharray:6,6}#chart-c10774e3-8a6a-41e1-a905-b6ffb44c3111 .axis text.major{stroke-width:0.5px}#chart-c10774e3-8a6a-41e1-a905-b6ffb44c3111 .horizontal .axis.y .guide.line,#chart-c10774e3-8a6a-41e1-a905-b6ffb44c3111 .horizontal .axis.y2 .guide.line,#chart-c10774e3-8a6a-41e1-a905-b6ffb44c3111 .vertical .axis.x .guide.line{opacity:0}#chart-c10774e3-8a6a-41e1-a905-b6ffb44c3111 .horizontal .axis.always_show .guide.line,#chart-c10774e3-8a6a-41e1-a905-b6ffb44c3111 .vertical .axis.always_show .guide.line{opacity:1 !important}#chart-c10774e3-8a6a-41e1-a905-b6ffb44c3111 .axis.y .guides:hover .guide.line,#chart-c10774e3-8a6a-41e1-a905-b6ffb44c3111 .axis.y2 .guides:hover .guide.line,#chart-c10774e3-8a6a-41e1-a905-b6ffb44c3111 .axis.x .guides:hover .guide.line{opacity:1}#chart-c10774e3-8a6a-41e1-a905-b6ffb44c3111 .axis .guides:hover text{opacity:1}#chart-c10774e3-8a6a-41e1-a905-b6ffb44c3111 .nofill{fill:none}#chart-c10774e3-8a6a-41e1-a905-b6ffb44c3111 .subtle-fill{fill-opacity:.2}#chart-c10774e3-8a6a-41e1-a905-b6ffb44c3111 .dot{stroke-width:1px;fill-opacity:1}#chart-c10774e3-8a6a-41e1-a905-b6ffb44c3111 .dot.active{stroke-width:5px}#chart-c10774e3-8a6a-41e1-a905-b6ffb44c3111 .series text{stroke:none}#chart-c10774e3-8a6a-41e1-a905-b6ffb44c3111 .series text.active{opacity:1}#chart-c10774e3-8a6a-41e1-a905-b6ffb44c3111 .tooltip rect{fill-opacity:0.8}#chart-c10774e3-8a6a-41e1-a905-b6ffb44c3111 .tooltip text{fill-opacity:1}#chart-c10774e3-8a6a-41e1-a905-b6ffb44c3111 .tooltip text tspan.label{fill-opacity:.8}</style><script type="text/javascript">window.config = {"inner_radius": 0, "print_values": false, "tooltip_font_size": 16, "xrange": null, "legend_at_bottom_columns": null, "height": 600, "legend_at_bottom": false, "show_legend": false, "show_dots": false, "explicit_size": false, "legend_font_size": 14, "y_labels_major": null, "show_minor_x_labels": true, "major_label_font_size": 10, "fill": true, "half_pie": false, "x_value_formatter": null, "style": {"opacity": ".7", "foreground": "#273417", "plot_background": "transparent", "stroke_style": "round", "foreground_light": "#000000", "transition": "200ms ease-in", "foreground_dark": "#oooooo", "stroke_dasharray": "0,0", "opacity_hover": ".9", "stroke_width": 1.0, "colors": ["#BF2931", "#0A6945", "#FCB831"], "background": "#F0E1CC ", "font_family": "monospace"}, "x_label_rotation": 0, "missing_value_fill_truncation": "x", "zero": 0, "margin_right": null, "interpolation_parameters": {}, "x_labels_major": null, "rounded_bars": null, "label_font_size": 10, "show_y_labels": true, "dots_size": 2.5, "show_y_guides": true, "show_minor_y_labels": true, "x_labels": null, "y_title": null, "value_font_size": 8, "order_min": null, "disable_xml_declaration": false, "strict": false, "css": ["style.css", "graph.css"], "mode": null, "show_only_major_dots": false, "y_label_rotation": 0, "human_readable": false, "show_x_guides": false, "spacing": 10, "x_labels_major_count": null, "pretty_print": false, "tooltip_border_radius": 0, "interpolate": null, "js": ["http://kozea.github.io/pygal.js/javascripts/svg.jquery.js", "http://kozea.github.io/pygal.js/javascripts/pygal-tooltips.js"], "y_labels": null, "y_labels_major_every": null, "x_label_format": "%Y-%m-%d %H:%M:%S.%f", "interpolation_precision": 250, "x_title": null, "value_formatter": null, "no_data_font_size": 64, "logarithmic": false, "width": 800, "print_zeroes": false, "no_data_text": "No data", "truncate_legend": null, "x_labels_major_every": null, "title": "Lithuania", "legend_box_size": 12, "no_prefix": false, "stroke": true, "title_font_size": 16, "include_x_axis": false, "range": null, "truncate_label": null, "margin_top": null, "margin_left": null, "y_labels_major_count": null, "margin_bottom": null, "margin": 20, "stack_from_top": false, "show_x_labels": true}</script><script type="text/javascript" xlink:href="http://kozea.github.io/pygal.js/javascripts/svg.jquery.js" /><script type="text/javascript" xlink:href="http://kozea.github.io/pygal.js/javascripts/pygal-tooltips.js" /></defs><title>Lithuania</title><g class="graph stackedline-graph vertical"><rect class="background" height="600" width="800" x="0" y="0" /><g class="plot" transform="translate(60, 46)"><rect class="background" height="534" width="720.0" x="0" y="0" /><g class="axis y"><path class="line" d="M0.000000 534.000000 h720.000000" /><g class="guides"><path class="guide line" d="M0.000000 494.259131 h720.000000" /><text class="" x="-5" y="497.75913125">20.0</text></g><g class="guides"><path class="guide line" d="M0.000000 433.760498 h720.000000" /><text class="" x="-5" y="437.260498264">30.0</text></g><g class="guides"><path class="guide line" d="M0.000000 373.261865 h720.000000" /><text class="" x="-5" y="376.761865278">40.0</text></g><g class="guides"><path class="major guide line" d="M0.000000 312.763232 h720.000000" /><text class="major" x="-5" y="316.263232292">50.0</text></g><g class="guides"><path class="guide line" d="M0.000000 252.264599 h720.000000" /><text class="" x="-5" y="255.764599306">60.0</text></g><g class="guides"><path class="guide line" d="M0.000000 191.765966 h720.000000" /><text class="" x="-5" y="195.26596632">70.0</text></g><g class="guides"><path class="guide line" d="M0.000000 131.267333 h720.000000" /><text class="" x="-5" y="134.767333333">80.0</text></g><g class="guides"><path class="guide line" d="M0.000000 70.768700 h720.000000" /><text class="" x="-5" y="74.2687003473">90.0</text></g><g class="guides"><path class="major guide line" d="M0.000000 10.270067 h720.000000" /><text class="major" x="-5" y="13.7700673611">100.0</text></g></g><g class="series serie-0 color-0"><path class="line reactive" d="M13.846154 534.000000 L13.846154 450.965074 26.908563 450.526342 39.970972 450.244786 53.033382 450.083433 66.095791 449.978542 79.158200 449.899279 92.220610 449.814731 105.283019 449.784487 118.345428 449.973199 131.407837 450.590869 144.470247 451.765790 157.532656 453.530019 170.595065 455.783174 183.657475 458.357638 196.719884 461.026932 209.782293 463.618705 222.844702 466.102621 235.907112 468.482881 248.969521 470.673090 262.031930 472.580578 275.094340 474.144635 288.156749 475.333646 301.219158 476.171680 314.281567 476.732312 327.343977 477.120006 340.406386 477.420002 353.468795 477.656359 366.531205 477.840733 379.593614 478.034534 392.656023 478.304920 405.718433 478.708134 418.780842 479.280767 431.843251 480.044258 444.905660 481.015882 457.968070 482.203081 471.030479 483.612709 484.092888 485.215804 497.155298 487.022542 510.217707 489.121753 523.280116 491.635833 536.342525 494.637363 549.404935 498.195163 562.467344 502.224986 575.529753 506.454979 588.592163 510.492637 601.654572 514.029413 614.716981 516.930068 627.779390 519.222301 640.841800 520.946539 653.904209 522.212315 666.966618 523.104162 680.029028 523.622226 693.091437 523.730769 706.153846 523.393891 706.153846 534.000000" /></g><g class="series serie-1 color-1"><path class="line reactive" d="M13.846154 58.230530 L26.908563 58.552186 39.970972 59.602068 53.033382 61.140347 66.095791 62.837602 79.158200 64.459817 92.220610 65.934561 105.283019 67.321723 118.345428 68.679355 131.407837 70.108393 144.470247 71.660300 157.532656 73.338168 170.595065 75.060267 183.657475 76.696410 196.719884 78.080698 209.782293 79.097278 222.844702 79.745678 235.907112 80.063075 248.969521 80.034942 262.031930 79.652775 275.094340 78.938072 288.156749 77.871262 301.219158 76.525156 314.281567 75.125232 327.343977 73.964043 340.406386 73.247020 353.468795 73.043596 366.531205 73.301958 379.593614 73.956681 392.656023 74.900633 405.718433 76.053757 418.780842 77.416779 431.843251 79.006846 444.905660 80.776013 457.968070 82.657640 471.030479 84.591056 484.092888 86.536680 497.155298 88.477551 510.217707 90.395458 523.280116 92.283374 536.342525 94.131769 549.404935 95.942443 562.467344 97.689950 575.529753 99.312777 588.592163 100.727298 601.654572 101.874768 614.716981 102.718399 627.779390 103.277582 640.841800 103.620071 653.904209 103.852811 666.966618 104.062692 680.029028 104.285029 693.091437 104.518058 706.153846 105.075756 706.153846 523.393891 693.091437 523.730769 680.029028 523.622226 666.966618 523.104162 653.904209 522.212315 640.841800 520.946539 627.779390 519.222301 614.716981 516.930068 601.654572 514.029413 588.592163 510.492637 575.529753 506.454979 562.467344 502.224986 549.404935 498.195163 536.342525 494.637363 523.280116 491.635833 510.217707 489.121753 497.155298 487.022542 484.092888 485.215804 471.030479 483.612709 457.968070 482.203081 444.905660 481.015882 431.843251 480.044258 418.780842 479.280767 405.718433 478.708134 392.656023 478.304920 379.593614 478.034534 366.531205 477.840733 353.468795 477.656359 340.406386 477.420002 327.343977 477.120006 314.281567 476.732312 301.219158 476.171680 288.156749 475.333646 275.094340 474.144635 262.031930 472.580578 248.969521 470.673090 235.907112 468.482881 222.844702 466.102621 209.782293 463.618705 196.719884 461.026932 183.657475 458.357638 170.595065 455.783174 157.532656 453.530019 144.470247 451.765790 131.407837 450.590869 118.345428 449.973199 105.283019 449.784487 92.220610 449.814731 79.158200 449.899279 66.095791 449.978542 53.033382 450.083433 39.970972 450.244786 26.908563 450.526342 13.846154 450.965074" /></g><g class="series serie-2 color-2"><path class="line reactive" d="M13.846154 10.270059 L26.908563 10.270073 39.970972 10.270292 53.033382 10.269231 66.095791 10.270079 79.158200 10.270056 92.220610 10.269479 105.283019 10.270869 118.345428 10.270281 131.407837 10.269687 144.470247 10.270067 157.532656 10.269675 170.595065 10.269877 183.657475 10.270062 196.719884 10.270264 209.782293 10.270073 222.844702 10.269894 235.907112 10.270067 248.969521 10.270240 262.031930 10.269877 275.094340 10.270079 288.156749 10.270085 301.219158 10.270240 314.281567 10.270240 327.343977 10.270598 340.406386 10.270056 353.468795 10.270062 366.531205 10.270217 379.593614 10.270073 392.656023 10.269929 405.718433 10.270085 418.780842 10.270079 431.843251 10.269883 444.905660 10.270235 457.968070 10.270056 471.030479 10.270073 484.092888 10.269733 497.155298 10.269375 510.217707 10.269548 523.280116 10.270252 536.342525 10.270050 549.404935 10.270056 562.467344 10.269894 575.529753 10.270419 588.592163 10.270085 601.654572 10.270044 614.716981 10.270050 627.779390 10.270610 640.841800 10.269860 653.904209 10.270050 666.966618 10.270062 680.029028 10.269854 693.091437 10.270050 706.153846 10.270067 706.153846 105.075756 693.091437 104.518058 680.029028 104.285029 666.966618 104.062692 653.904209 103.852811 640.841800 103.620071 627.779390 103.277582 614.716981 102.718399 601.654572 101.874768 588.592163 100.727298 575.529753 99.312777 562.467344 97.689950 549.404935 95.942443 536.342525 94.131769 523.280116 92.283374 510.217707 90.395458 497.155298 88.477551 484.092888 86.536680 471.030479 84.591056 457.968070 82.657640 444.905660 80.776013 431.843251 79.006846 418.780842 77.416779 405.718433 76.053757 392.656023 74.900633 379.593614 73.956681 366.531205 73.301958 353.468795 73.043596 340.406386 73.247020 327.343977 73.964043 314.281567 75.125232 301.219158 76.525156 288.156749 77.871262 275.094340 78.938072 262.031930 79.652775 248.969521 80.034942 235.907112 80.063075 222.844702 79.745678 209.782293 79.097278 196.719884 78.080698 183.657475 76.696410 170.595065 75.060267 157.532656 73.338168 144.470247 71.660300 131.407837 70.108393 118.345428 68.679355 105.283019 67.321723 92.220610 65.934561 79.158200 64.459817 66.095791 62.837602 53.033382 61.140347 39.970972 59.602068 26.908563 58.552186 13.846154 58.230530" /></g></g><g class="titles"><text class="title plot_title" x="400.0" y="26">Lithuania</text></g><g class="plot overlay" transform="translate(60, 46)"><g class="series serie-0 color-0" /><g class="series serie-1 color-1" /><g class="series serie-2 color-2" /></g><g class="plot text-overlay" transform="translate(60, 46)"><g class="series serie-0 color-0" /><g class="series serie-1 color-1" /><g class="series serie-2 color-2" /></g><g class="plot tooltip-overlay" transform="translate(60, 46)"><g class="tooltip" style="opacity: 0" transform="translate(0 0)"><a><rect class="tooltip-box" height="0" rx="0" ry="0" width="0" /><text class="text"><tspan class="label" /><tspan class="value" /></text></a></g></g></g></svg>